<svg xmlns="http://www.w3.org/2000/svg" xmlns:xlink="http://www.w3.org/1999/xlink" width="40" zoomAndPan="magnify" viewBox="0 0 30 30.000001" height="40" preserveAspectRatio="xMidYMid meet" version="1.0"><defs><clipPath id="id1"><path d="M 17 5.039062 L 28.453125 5.039062 L 28.453125 13 L 17 13 Z M 17 5.039062 " clip-rule="nonzero"/></clipPath><clipPath id="id2"><path d="M 2.324219 5.039062 L 28.453125 5.039062 L 28.453125 23.910156 L 2.324219 23.910156 Z M 2.324219 5.039062 " clip-rule="nonzero"/></clipPath><clipPath id="id3"><path d="M 2.324219 5.039062 L 14 5.039062 L 14 13 L 2.324219 13 Z M 2.324219 5.039062 " clip-rule="nonzero"/></clipPath><clipPath id="id4"><path d="M 17 16 L 28.453125 16 L 28.453125 23.910156 L 17 23.910156 Z M 17 16 " clip-rule="nonzero"/></clipPath><clipPath id="id5"><path d="M 2.324219 16 L 14 16 L 14 23.910156 L 2.324219 23.910156 Z M 2.324219 16 " clip-rule="nonzero"/></clipPath></defs><g clip-path="url(#id1)"><path fill="rgb(100%, 100%, 100%)" d="M 25.542969 5.039062 L 17.199219 5.039062 L 17.199219 12.660156 L 28.445312 12.660156 L 28.445312 7.945312 C 28.445312 6.339844 27.144531 5.039062 25.542969 5.039062 Z M 25.542969 5.039062 " fill-opacity="1" fill-rule="nonzero"/></g><g clip-path="url(#id2)"><path fill="rgb(90.979004%, 6.669617%, 17.649841%)" d="M 17.199219 5.039062 L 13.574219 5.039062 L 13.574219 12.660156 L 2.332031 12.660156 L 2.332031 16.289062 L 13.574219 16.289062 L 13.574219 23.910156 L 17.199219 23.910156 L 17.199219 16.289062 L 28.445312 16.289062 L 28.445312 12.660156 L 17.199219 12.660156 Z M 17.199219 5.039062 " fill-opacity="1" fill-rule="nonzero"/></g><path fill="rgb(90.979004%, 6.669617%, 17.649841%)" d="M 23.304688 8.367188 C 23.328125 7.917969 23.378906 7.464844 23.464844 7.019531 C 23.039062 7.070312 22.605469 7.070312 22.179688 7.019531 C 22.265625 7.464844 22.320312 7.917969 22.339844 8.367188 C 21.890625 8.347656 21.4375 8.292969 20.992188 8.207031 C 21.046875 8.636719 21.046875 9.066406 20.992188 9.492188 C 21.4375 9.40625 21.890625 9.355469 22.339844 9.332031 C 22.320312 9.785156 22.265625 10.234375 22.179688 10.683594 C 22.605469 10.628906 23.039062 10.628906 23.464844 10.683594 C 23.378906 10.234375 23.328125 9.785156 23.304688 9.332031 C 23.757812 9.355469 24.207031 9.40625 24.652344 9.492188 C 24.601562 9.066406 24.601562 8.632812 24.652344 8.207031 C 24.207031 8.292969 23.757812 8.347656 23.304688 8.367188 Z M 23.304688 8.367188 " fill-opacity="1" fill-rule="nonzero"/><g clip-path="url(#id3)"><path fill="rgb(100%, 100%, 100%)" d="M 13.574219 5.039062 L 5.234375 5.039062 C 3.628906 5.039062 2.332031 6.339844 2.332031 7.945312 L 2.332031 12.660156 L 13.574219 12.660156 Z M 13.574219 5.039062 " fill-opacity="1" fill-rule="nonzero"/></g><path fill="rgb(90.979004%, 6.669617%, 17.649841%)" d="M 8.433594 8.367188 C 8.457031 7.917969 8.511719 7.464844 8.59375 7.019531 C 8.167969 7.070312 7.738281 7.070312 7.3125 7.019531 C 7.394531 7.464844 7.449219 7.917969 7.472656 8.367188 C 7.019531 8.347656 6.570312 8.292969 6.121094 8.207031 C 6.175781 8.636719 6.175781 9.066406 6.121094 9.492188 C 6.570312 9.40625 7.019531 9.355469 7.472656 9.332031 C 7.449219 9.785156 7.394531 10.234375 7.3125 10.683594 C 7.738281 10.628906 8.167969 10.628906 8.59375 10.683594 C 8.511719 10.234375 8.457031 9.785156 8.433594 9.332031 C 8.886719 9.355469 9.335938 9.40625 9.785156 9.492188 C 9.730469 9.066406 9.730469 8.632812 9.785156 8.207031 C 9.335938 8.292969 8.886719 8.347656 8.433594 8.367188 Z M 8.433594 8.367188 " fill-opacity="1" fill-rule="nonzero"/><g clip-path="url(#id4)"><path fill="rgb(100%, 100%, 100%)" d="M 28.445312 21.007812 L 28.445312 16.289062 L 17.199219 16.289062 L 17.199219 23.910156 L 25.542969 23.910156 C 27.144531 23.910156 28.445312 22.613281 28.445312 21.007812 Z M 28.445312 21.007812 " fill-opacity="1" fill-rule="nonzero"/></g><path fill="rgb(90.979004%, 6.669617%, 17.649841%)" d="M 23.304688 20.582031 C 23.328125 21.035156 23.378906 21.488281 23.464844 21.933594 C 23.039062 21.882812 22.605469 21.882812 22.179688 21.933594 C 22.265625 21.488281 22.320312 21.035156 22.339844 20.582031 C 21.890625 20.605469 21.4375 20.660156 20.992188 20.746094 C 21.046875 20.316406 21.046875 19.886719 20.992188 19.460938 C 21.4375 19.542969 21.890625 19.597656 22.339844 19.621094 C 22.320312 19.167969 22.265625 18.71875 22.179688 18.269531 C 22.605469 18.324219 23.039062 18.324219 23.464844 18.269531 C 23.378906 18.714844 23.328125 19.167969 23.304688 19.621094 C 23.757812 19.597656 24.207031 19.542969 24.652344 19.460938 C 24.601562 19.886719 24.601562 20.316406 24.652344 20.746094 C 24.207031 20.660156 23.757812 20.605469 23.304688 20.582031 Z M 23.304688 20.582031 " fill-opacity="1" fill-rule="nonzero"/><g clip-path="url(#id5)"><path fill="rgb(100%, 100%, 100%)" d="M 13.574219 16.289062 L 2.332031 16.289062 L 2.332031 21.007812 C 2.332031 22.613281 3.628906 23.910156 5.234375 23.910156 L 13.574219 23.910156 Z M 13.574219 16.289062 " fill-opacity="1" fill-rule="nonzero"/></g><path fill="rgb(90.979004%, 6.669617%, 17.649841%)" d="M 8.433594 20.582031 C 8.457031 21.035156 8.511719 21.488281 8.59375 21.933594 C 8.167969 21.882812 7.738281 21.882812 7.3125 21.933594 C 7.394531 21.488281 7.449219 21.035156 7.472656 20.582031 C 7.019531 20.605469 6.570312 20.660156 6.121094 20.746094 C 6.175781 20.316406 6.175781 19.886719 6.121094 19.460938 C 6.570312 19.542969 7.019531 19.597656 7.472656 19.621094 C 7.449219 19.167969 7.394531 18.71875 7.3125 18.269531 C 7.738281 18.324219 8.167969 18.324219 8.59375 18.269531 C 8.511719 18.714844 8.457031 19.167969 8.433594 19.621094 C 8.886719 19.597656 9.335938 19.542969 9.785156 19.460938 C 9.730469 19.886719 9.730469 20.316406 9.785156 20.746094 C 9.335938 20.660156 8.886719 20.605469 8.433594 20.582031 Z M 8.433594 20.582031 " fill-opacity="1" fill-rule="nonzero"/></svg>