<svg xmlns="http://www.w3.org/2000/svg" xmlns:xlink="http://www.w3.org/1999/xlink" width="40" zoomAndPan="magnify" viewBox="0 0 30 30.000001" height="40" preserveAspectRatio="xMidYMid meet" version="1.0"><defs><clipPath id="id1"><path d="M 2.582031 10 L 26.535156 10 L 26.535156 18 L 2.582031 18 Z M 2.582031 10 " clip-rule="nonzero"/></clipPath><clipPath id="id2"><path d="M 2.582031 5.554688 L 26.535156 5.554688 L 26.535156 22.972656 L 2.582031 22.972656 Z M 2.582031 5.554688 " clip-rule="nonzero"/></clipPath></defs><g clip-path="url(#id1)"><path fill="rgb(93.328857%, 93.328857%, 93.328857%)" d="M 2.589844 10.914062 L 26.53125 10.914062 L 26.53125 17.613281 L 2.589844 17.613281 Z M 2.589844 10.914062 " fill-opacity="1" fill-rule="nonzero"/></g><g clip-path="url(#id2)"><path fill="rgb(92.939758%, 16.079712%, 22.349548%)" d="M 23.871094 5.554688 L 5.25 5.554688 C 3.78125 5.554688 2.589844 6.753906 2.589844 8.234375 L 2.589844 10.914062 L 26.53125 10.914062 L 26.53125 8.234375 C 26.53125 6.753906 25.339844 5.554688 23.871094 5.554688 Z M 5.25 22.972656 L 23.871094 22.972656 C 25.339844 22.972656 26.53125 21.773438 26.53125 20.292969 L 26.53125 17.613281 L 2.589844 17.613281 L 2.589844 20.292969 C 2.589844 21.773438 3.78125 22.972656 5.25 22.972656 Z M 5.25 22.972656 " fill-opacity="1" fill-rule="nonzero"/></g></svg>