<svg xmlns="http://www.w3.org/2000/svg" xmlns:xlink="http://www.w3.org/1999/xlink" width="40" zoomAndPan="magnify" viewBox="0 0 30 30.000001" height="40" preserveAspectRatio="xMidYMid meet" version="1.0"><defs><clipPath id="id1"><path d="M 2.511719 4.957031 L 27.914062 4.957031 L 27.914062 11 L 2.511719 11 Z M 2.511719 4.957031 " clip-rule="nonzero"/></clipPath><clipPath id="id2"><path d="M 2.511719 17 L 27.914062 17 L 27.914062 23.101562 L 2.511719 23.101562 Z M 2.511719 17 " clip-rule="nonzero"/></clipPath><clipPath id="id3"><path d="M 2.511719 10 L 27.914062 10 L 27.914062 18 L 2.511719 18 Z M 2.511719 10 " clip-rule="nonzero"/></clipPath></defs><g clip-path="url(#id1)"><path fill="rgb(85.099792%, 0%, 7.058716%)" d="M 25.085938 4.957031 L 5.34375 4.957031 C 3.785156 4.957031 2.523438 6.207031 2.523438 7.75 L 2.523438 10.539062 L 27.90625 10.539062 L 27.90625 7.75 C 27.90625 6.207031 26.640625 4.957031 25.085938 4.957031 Z M 25.085938 4.957031 " fill-opacity="1" fill-rule="nonzero"/></g><g clip-path="url(#id2)"><path fill="rgb(94.898987%, 65.879822%, 0%)" d="M 5.34375 23.101562 L 25.085938 23.101562 C 26.640625 23.101562 27.90625 21.851562 27.90625 20.308594 L 27.90625 17.519531 L 2.523438 17.519531 L 2.523438 20.308594 C 2.523438 21.851562 3.785156 23.101562 5.34375 23.101562 Z M 5.34375 23.101562 " fill-opacity="1" fill-rule="nonzero"/></g><g clip-path="url(#id3)"><path fill="rgb(0%, 19.999695%, 62.748718%)" d="M 2.523438 10.539062 L 27.90625 10.539062 L 27.90625 17.519531 L 2.523438 17.519531 Z M 2.523438 10.539062 " fill-opacity="1" fill-rule="nonzero"/></g></svg>