<svg xmlns="http://www.w3.org/2000/svg" xmlns:xlink="http://www.w3.org/1999/xlink" width="40" zoomAndPan="magnify" viewBox="0 0 30 30.000001" height="40" preserveAspectRatio="xMidYMid meet" version="1.0"><defs><clipPath id="id1"><path d="M 2.347656 5.382812 L 27.027344 5.382812 L 27.027344 23.527344 L 2.347656 23.527344 Z M 2.347656 5.382812 " clip-rule="nonzero"/></clipPath></defs><g clip-path="url(#id1)"><path fill="rgb(89.019775%, 3.529358%, 9.01947%)" d="M 27.019531 20.738281 C 27.019531 22.277344 25.792969 23.527344 24.277344 23.527344 L 5.09375 23.527344 C 3.582031 23.527344 2.355469 22.277344 2.355469 20.738281 L 2.355469 8.175781 C 2.355469 6.632812 3.582031 5.382812 5.09375 5.382812 L 24.277344 5.382812 C 25.792969 5.382812 27.019531 6.632812 27.019531 8.175781 Z M 27.019531 20.738281 " fill-opacity="1" fill-rule="nonzero"/></g><path fill="rgb(93.328857%, 93.328857%, 93.328857%)" d="M 13.316406 18.644531 C 11.046875 18.644531 9.207031 16.769531 9.207031 14.457031 C 9.207031 12.144531 11.046875 10.269531 13.316406 10.269531 C 14.214844 10.269531 15.042969 10.566406 15.71875 11.0625 C 14.796875 10 13.449219 9.324219 11.945312 9.324219 C 9.164062 9.324219 6.910156 11.621094 6.910156 14.457031 C 6.910156 17.292969 9.164062 19.589844 11.945312 19.589844 C 13.449219 19.589844 14.796875 18.914062 15.71875 17.847656 C 15.042969 18.347656 14.214844 18.644531 13.316406 18.644531 Z M 15.996094 14.617188 L 17.667969 15.007812 L 17.820312 16.75 L 18.703125 15.25 L 20.375 15.644531 L 19.246094 14.324219 L 20.128906 12.828125 L 18.550781 13.511719 L 17.425781 12.191406 L 17.574219 13.933594 Z M 15.996094 14.617188 " fill-opacity="1" fill-rule="nonzero"/></svg>